<svg width="20" height="20" viewBox="0 0 20 20" fill="none" xmlns="http://www.w3.org/2000/svg">
<path d="M5.00033 1.66666H11.667V3.33332H5.00033V1.66666ZM3.33366 4.99999V3.33332H5.00033V4.99999H3.33366ZM3.33366 11.6667H1.66699V4.99999H3.33366V11.6667ZM5.00033 13.3333H3.33366V11.6667H5.00033V13.3333ZM11.667 13.3333V15H5.00033V13.3333H11.667ZM13.3337 11.6667H11.667V13.3333H13.3337V15H15.0003V16.6667H16.667V18.3333H18.3337V16.6667H16.667V15H15.0003V13.3333H13.3337V11.6667ZM13.3337 4.99999H15.0003V11.6667H13.3337V4.99999ZM13.3337 4.99999V3.33332H11.667V4.99999H13.3337Z" fill="#0FA958"/>
</svg>
