<svg width="26" height="24" viewBox="0 0 26 24" fill="none" xmlns="http://www.w3.org/2000/svg">
<path d="M12.1084 0.744111C12.389 -0.119617 13.611 -0.119619 13.8916 0.74411L16.1572 7.71695C16.2827 8.10322 16.6427 8.36475 17.0488 8.36475H24.3805C25.2887 8.36475 25.6663 9.52689 24.9316 10.0607L19.0001 14.3701C18.6715 14.6089 18.534 15.032 18.6596 15.4183L20.9252 22.3911C21.2058 23.2549 20.2172 23.9731 19.4825 23.4393L13.551 19.1299C13.2225 18.8911 12.7775 18.8911 12.449 19.1299L6.5175 23.4393C5.78277 23.9731 4.79419 23.2549 5.07484 22.3911L7.34045 15.4183C7.46596 15.032 7.32846 14.6089 6.99988 14.3701L1.06843 10.0607C0.333701 9.52689 0.711302 8.36475 1.61948 8.36475H8.95116C9.35731 8.36475 9.71726 8.10322 9.84277 7.71695L12.1084 0.744111Z" fill="white"/>
</svg>
