<svg width="121" height="120" viewBox="0 0 121 120" fill="none" xmlns="http://www.w3.org/2000/svg">
<path d="M19.8006 74.6871L12.8237 74.0354L12.6469 75.9285C11.955 83.3363 16.0177 90.3731 22.779 93.4778L24.5068 94.2712C25.2683 94.6208 25.8792 95.2317 26.2288 95.9931L27.0222 97.721C30.1269 104.482 37.1637 108.545 44.5715 107.853L46.4646 107.676C47.2988 107.598 48.1334 107.822 48.8169 108.307L50.3679 109.406C56.4373 113.709 64.5627 113.709 70.6321 109.406L72.1831 108.307C72.8666 107.822 73.7012 107.598 74.5354 107.676L76.4285 107.853C83.8363 108.545 90.8731 104.482 93.9777 97.7211L94.7712 95.9932C95.1208 95.2317 95.7317 94.6208 96.4931 94.2712L98.221 93.4778L95.2969 87.1097L98.221 93.4778C104.982 90.3731 109.045 83.3363 108.353 75.9285L108.176 74.0354C108.098 73.2012 108.322 72.3666 108.807 71.6831L109.906 70.1321C114.209 64.0627 114.209 55.9373 109.906 49.8679L108.807 48.3169C108.322 47.6334 108.098 46.7988 108.176 45.9646L108.353 44.0715C109.045 36.6637 104.982 29.6269 98.221 26.5222L96.4931 25.7288C95.7317 25.3792 95.1208 24.7683 94.7712 24.0069L93.9778 22.279C90.8731 15.5177 83.8363 11.455 76.4285 12.1469L74.5354 12.3237C73.7012 12.4016 72.8666 12.178 72.1831 11.6934L70.6321 10.5937C64.5627 6.29063 56.4373 6.29062 50.3679 10.5937L48.8169 11.6934C48.1334 12.178 47.2988 12.4016 46.4646 12.3237L44.5715 12.1469C37.1637 11.455 30.1269 15.5177 27.0222 22.279L26.2288 24.0069C25.8792 24.7683 25.2683 25.3792 24.5069 25.7288L22.779 26.5222L25.7031 32.8903L22.779 26.5222C16.0177 29.6269 11.955 36.6637 12.6469 44.0715L12.8237 45.9646C12.9016 46.7988 12.678 47.6334 12.1934 48.3169L11.0937 49.8679C6.79063 55.9373 6.79062 64.0627 11.0937 70.1321L12.1934 71.6831C12.678 72.3666 12.9016 73.2012 12.8237 74.0354L19.8006 74.6871Z" fill="#0E9F6E" stroke="#D7FFF5" stroke-width="14.0146"/>
<path d="M56.2081 66.0087L51.2008 61.0014C50.6428 60.4435 49.7558 60.4435 49.1979 61.0014C48.6399 61.5594 48.6399 62.4464 49.1979 63.0043L55.1923 68.9988C55.7503 69.5568 56.6516 69.5568 57.2096 68.9988L72.3745 53.8481C72.9325 53.2902 72.9325 52.4032 72.3745 51.8452C71.8166 51.2873 70.9296 51.2873 70.3716 51.8452L56.2081 66.0087Z" fill="white"/>
</svg>
