<svg width="129" height="129" viewBox="0 0 129 129" fill="none" xmlns="http://www.w3.org/2000/svg">
<path d="M56.441 15.7137C61.2686 12.2911 67.7314 12.2911 72.559 15.7137C75.2773 17.6409 78.5962 18.5302 81.9138 18.2204C87.806 17.67 93.403 20.9014 95.8724 26.2793C97.2629 29.3075 99.6925 31.7371 102.721 33.1276C108.099 35.597 111.33 41.194 110.78 47.0862C110.47 50.4038 111.359 53.7227 113.286 56.441C116.709 61.2686 116.709 67.7314 113.286 72.559C111.359 75.2773 110.47 78.5962 110.78 81.9138C111.33 87.806 108.099 93.403 102.721 95.8724C99.6925 97.2629 97.2629 99.6925 95.8724 102.721C93.403 108.099 87.806 111.33 81.9138 110.78C78.5962 110.47 75.2773 111.359 72.559 113.286C67.7314 116.709 61.2686 116.709 56.441 113.286C53.7227 111.359 50.4038 110.47 47.0862 110.78C41.194 111.33 35.597 108.099 33.1276 102.721C31.7371 99.6925 29.3075 97.2629 26.2793 95.8724C20.9014 93.403 17.67 87.806 18.2204 81.9138C18.5302 78.5962 17.6409 75.2773 15.7137 72.559C12.2911 67.7314 12.2911 61.2686 15.7137 56.441C17.6409 53.7227 18.5302 50.4038 18.2204 47.0862C17.67 41.194 20.9014 35.597 26.2793 33.1276C29.3075 31.7371 31.7371 29.3075 33.1276 26.2793C35.597 20.9014 41.194 17.67 47.0862 18.2204C50.4038 18.5302 53.7227 17.6409 56.441 15.7137Z" fill="#FD5A47"/>
<path d="M10.3571 76.3567L15.7137 72.559L10.3572 76.3568C11.3762 77.794 11.8464 79.5489 11.6825 81.3032C10.8728 89.9719 15.6271 98.2065 23.5393 101.84C25.1404 102.575 26.4251 103.86 27.1603 105.461C30.7935 113.373 39.0281 118.127 47.6968 117.317C49.4511 117.154 51.206 117.624 52.6432 118.643C59.7458 123.678 69.2542 123.678 76.3567 118.643C77.7941 117.624 79.5489 117.154 81.3032 117.317C89.9719 118.127 98.2065 113.373 101.84 105.461C102.575 103.86 103.86 102.575 105.461 101.84C113.373 98.2065 118.127 89.9719 117.317 81.3032C117.154 79.5489 117.624 77.7941 118.643 76.3568C123.678 69.2542 123.678 59.7458 118.643 52.6433C117.624 51.206 117.154 49.4511 117.317 47.6968C118.127 39.0281 113.373 30.7935 105.461 27.1603C103.86 26.4251 102.575 25.1404 101.84 23.5393C98.2065 15.6271 89.9719 10.8728 81.3032 11.6825C79.5489 11.8464 77.794 11.3762 76.3568 10.3572L72.559 15.7137L76.3567 10.3571C69.2542 5.32156 59.7458 5.32156 52.6433 10.3571C51.206 11.3762 49.4511 11.8464 47.6968 11.6825C39.0281 10.8728 30.7935 15.6271 27.1603 23.5393C26.4251 25.1404 25.1404 26.4251 23.5393 27.1603C15.6271 30.7935 10.8728 39.0281 11.6825 47.6968C11.8464 49.4511 11.3762 51.206 10.3571 52.6433C5.32156 59.7458 5.32156 69.2542 10.3571 76.3567Z" stroke="#FD5A47" stroke-opacity="0.28" stroke-width="13.1325"/>
<path d="M64.5 55.4715C65.4931 55.4715 66.3057 56.2841 66.3057 57.2772V64.5001C66.3057 65.4932 65.4931 66.3058 64.5 66.3058C63.5068 66.3058 62.6943 65.4932 62.6943 64.5001V57.2772C62.6943 56.2841 63.5068 55.4715 64.5 55.4715ZM64.4819 46.4429C54.5143 46.4429 46.4427 54.5325 46.4427 64.5001C46.4427 74.4677 54.5143 82.5573 64.4819 82.5573C74.4676 82.5573 82.5572 74.4677 82.5572 64.5001C82.5572 54.5325 74.4676 46.4429 64.4819 46.4429ZM64.5 78.9459C56.5187 78.9459 50.0542 72.4814 50.0542 64.5001C50.0542 56.5188 56.5187 50.0543 64.5 50.0543C72.4813 50.0543 78.9458 56.5188 78.9458 64.5001C78.9458 72.4814 72.4813 78.9459 64.5 78.9459ZM66.3057 73.5287H62.6943V69.9173H66.3057V73.5287Z" fill="white"/>
</svg>
