<?xml version="1.0" encoding="UTF-8"?>
<svg id="Layer_2" data-name="Layer 2" xmlns="http://www.w3.org/2000/svg" viewBox="0 0 255.44 293.76">
  <defs>
    <style>
      .cls-1 {
        fill: #0b2811;
      }

      .cls-2 {
        font-family: Lato-Black, Lato;
        font-size: 73.66px;
        font-weight: 800;
      }
    </style>
  </defs>
  <path class="cls-1" d="m28.07,18.91v160.2s-2.85,16.06,11.06,16.06h168.41s15.7.25,15.7-13.2v-108.82l-44.96,75.64s-12.13,28.9-43.89,16.77c-2.85-1.43-29.02-11.66-16.41-46.62,2.14-3.33,42.58-74.21,42.58-74.21,0,0,10.47-23.07,31.16-14.51,1.9,1.43,15.94,12.37,5,31.4-10.94,19.03-32.11,57.32-32.11,57.32,0,0-5.23,10.23-12.84,5.71,0,0-5.95-2.38.24-13.32,6.18-10.94,34.25-59.23,34.25-59.23,0,0,4.76-7.14-1.9-9.99-1.43-.71-8.56-1.43-12.37,8.09-7.85,14.75-40.91,71.36-40.91,71.36,0,0-10.23,16.17,4.52,28.54,3.49,2.38,22.83,12.37,33.54-12.37,12.37-20.22,54.11-92.77,54.11-92.77V12.37s2.02-12.37-15.34-12.37H39.25s-11.42.24-11.42,12.84c0,4.76.24,6.07.24,6.07Z"/>
  <text class="cls-2" transform="translate(0 280.61)"><tspan x="0" y="0">eMemo</tspan></text>
</svg>