<svg width="435" height="467" viewBox="0 0 435 467" fill="none" xmlns="http://www.w3.org/2000/svg">
<path d="M274.78 450.049C239.228 450.05 205.783 436.811 157.379 417.651C149.298 414.452 140.942 411.145 132.011 407.671C86.4867 389.964 54.4865 399.364 35.6582 410.369C15.2635 422.289 5.5079 438.587 5.41205 438.75C5.3208 438.903 5.12218 438.954 4.96826 438.865C4.81388 438.774 4.76271 438.576 4.8535 438.421C4.95074 438.257 14.7926 421.813 35.331 409.809C54.2833 398.733 86.4807 389.268 132.247 407.067C141.179 410.541 149.536 413.85 157.618 417.048C227.833 444.842 266.512 460.151 325.84 440.582C326.011 440.523 326.194 440.618 326.249 440.788C326.305 440.958 326.213 441.14 326.043 441.197C307.462 447.326 290.903 450.049 274.78 450.049Z" fill="black"/>
<path d="M359.276 434.454C344.933 434.24 338.904 422.688 343.474 415.207C346.217 410.72 351.201 409.669 355.974 408.993C359.776 408.456 363.367 407.948 365.575 405.236C369.466 400.454 366.253 394.278 362.202 389.597C359.372 386.327 356.085 383.174 354.733 378.987C352.276 371.376 357.249 363.417 363.431 359.487C369.929 355.357 377.927 354.333 384.984 353.429C393.564 352.333 396.141 356.95 394.509 363.03C393.714 365.994 392.051 368.6 391.268 371.478C389.179 379.157 394.843 388.053 402.697 389.398C406.039 389.972 409.798 389.417 412.869 391.207C416.881 393.547 417.845 398.787 417.41 402.911C416.158 414.758 404.919 422.17 394.335 424.259C390.966 424.925 385.701 427.178 381.056 429.167C374.68 431.894 368.779 434.581 359.276 434.454ZM385.102 354.347C378.142 355.238 370.252 356.248 363.928 360.268C358.046 364.007 353.302 371.539 355.614 378.703C356.899 382.679 360.137 385.799 362.902 388.992C367.286 394.056 370.501 400.651 366.293 405.82C363.857 408.814 359.915 409.371 356.104 409.91C351.533 410.558 346.848 411.463 344.265 415.69C340.057 422.576 345.655 433.324 359.29 433.528C368.724 433.666 374.47 430.98 380.692 428.315C385.379 426.309 390.691 424.035 394.157 423.351C404.406 421.327 415.287 414.192 416.49 402.814C416.895 398.977 416.034 394.124 412.403 392.006C409.569 390.353 405.95 390.892 402.542 390.311C394.158 388.873 388.141 379.449 390.375 371.236C391.174 368.297 392.847 365.651 393.616 362.79C395.114 357.208 392.884 353.348 385.102 354.347Z" fill="black"/>
<path d="M376.41 465.827C376.185 465.708 376.097 465.428 376.216 465.202C395.719 428.043 376.382 366.423 376.184 365.805C376.106 365.562 376.241 365.301 376.484 365.223C376.728 365.146 376.988 365.279 377.066 365.523C377.265 366.145 396.72 428.129 377.034 465.633C376.917 465.858 376.638 465.946 376.41 465.827Z" fill="black"/>
<path d="M398.524 428.848C400.595 431.647 403.171 434.098 406.076 436.017C408.98 437.936 412.564 439.083 415.973 438.373C419.382 437.664 422.437 434.77 422.613 431.293C422.731 428.95 421.585 426.688 420.008 424.952C417.588 422.289 413.907 420.161 413.605 416.575C413.425 414.435 414.627 412.352 416.296 411C420.452 407.634 426.575 408.362 430.674 405.184C434.879 401.923 435.391 395.479 433.292 390.59C431.193 385.701 427.094 382.003 423.116 378.469C421.846 377.342 420.412 376.148 418.714 376.151C416.56 376.156 414.887 378.124 414.175 380.157C413.463 382.189 413.392 384.401 412.687 386.436C410.765 391.986 403.638 395.032 398.298 392.587C396.081 391.572 394.124 389.765 391.692 389.592C388.668 389.376 386.062 391.817 384.625 394.488C380.824 401.55 383.954 410.236 389.576 415.955C392.327 418.753 396.19 425.695 398.524 428.848Z" fill="#CAD5FF"/>
<path d="M383.797 443.905C383.547 443.851 383.387 443.606 383.44 443.356C387.594 423.794 404.531 405.385 414.258 396.153C414.443 395.977 414.736 395.982 414.912 396.17C415.088 396.355 415.081 396.648 414.895 396.823C405.246 405.982 388.447 424.231 384.346 443.548C384.295 443.785 384.065 443.957 383.797 443.905Z" fill="black"/>
<path d="M393.848 465.88H359.939C359.683 465.88 359.477 465.674 359.477 465.418C359.477 465.162 359.683 464.955 359.939 464.955H393.848C394.104 464.955 394.31 465.162 394.31 465.418C394.311 465.673 394.104 465.88 393.848 465.88Z" fill="black"/>
<path d="M255.724 152.954C260.763 149.765 264.6 145.955 265.45 146.745C267.27 148.437 263.076 153.457 260.197 156.258C263.589 154.351 266.623 152.41 267.132 153.571C268.684 157.104 247.316 175.49 247.316 175.49L230.635 160.103C230.894 155.213 237.41 139.961 241.211 140.46C243.128 140.708 242.137 145.191 242.43 149.903C249.969 144.868 254.889 137.736 256.096 139.184C257.723 141.136 254.638 146.053 251.405 149.941C256.714 145.921 260.428 141.344 261.638 142.62C262.933 143.987 258.837 149.522 255.724 152.954Z" fill="#E7FFF7"/>
<path d="M247.092 175.727L230.411 160.34C230.341 160.275 230.302 160.182 230.307 160.086C230.535 155.8 235.282 144.166 239.117 140.977C239.887 140.337 240.596 140.056 241.249 140.139C242.851 140.347 242.797 142.574 242.724 145.656C242.697 146.781 242.667 148.037 242.719 149.312C246.105 146.977 248.988 144.207 251.118 142.159C252.709 140.63 255.314 137.743 256.34 138.978C257.948 140.906 255.522 145.02 253.366 147.957C254.369 147.117 255.3 146.291 256.161 145.525C259.097 142.918 260.868 141.344 261.868 142.398C263.287 143.894 259.692 148.718 257.498 151.38C258.716 150.532 259.838 149.688 260.804 148.962C263.478 146.952 264.954 145.844 265.665 146.508C267.63 148.334 263.805 152.885 261.994 154.862C263.526 153.995 266.767 151.945 267.424 153.442C269.026 157.088 249.728 173.838 247.522 175.736C247.401 175.84 247.215 175.841 247.092 175.727ZM230.965 159.969L247.32 175.055C255.514 167.983 267.883 156.093 266.832 153.701C266.476 152.894 262.423 155.361 261.615 155.823C261.203 156.058 260.78 156.299 260.353 156.539C260.209 156.618 260.031 156.581 259.934 156.452C259.837 156.321 259.851 156.139 259.968 156.025C261.77 154.272 266.96 148.59 265.225 146.981C264.92 146.688 262.764 148.3 261.195 149.478C259.721 150.587 257.887 151.965 255.893 153.227C255.754 153.313 255.575 153.285 255.472 153.162C255.367 153.037 255.371 152.856 255.48 152.736C259.604 148.188 262.26 143.75 261.399 142.843C260.832 142.244 258.774 144.07 256.593 146.008C255.132 147.305 253.477 148.775 251.596 150.199C251.466 150.295 251.281 150.282 251.167 150.164C251.053 150.045 251.046 149.859 251.152 149.733C254.366 145.868 257.287 141.122 255.843 139.391C255.589 139.086 254.809 139.509 251.567 142.624C249.321 144.783 246.244 147.741 242.606 150.171C242.396 150.31 242.118 150.169 242.102 149.922C242.009 148.425 242.046 146.945 242.076 145.638C242.139 142.998 242.189 140.913 241.165 140.779C240.707 140.731 240.157 140.954 239.53 141.473C235.922 144.476 231.285 155.761 230.965 159.969Z" fill="black"/>
<path d="M14.3984 377.867C12.1218 383.379 11.1859 388.705 10.0365 388.549C7.57376 388.217 8.10281 381.698 8.83832 377.748C7.16821 381.263 5.81011 384.599 4.7239 383.944C1.41872 381.954 8.2641 354.609 8.2641 354.609L30.7663 357.553C33.376 361.697 36.8531 377.913 33.4608 379.699C31.7511 380.602 29.9741 376.368 27.0164 372.689C23.7642 381.152 23.86 389.815 22.0383 389.328C19.5829 388.673 19.2654 382.877 19.6636 377.836C17.6469 384.183 17.2534 390.064 15.5289 389.719C13.6832 389.35 13.8357 382.467 14.3984 377.867Z" fill="#E7FFF7"/>
<path d="M15.4658 390.037C13.4446 389.633 13.5971 383.619 13.8543 380.181C13.3496 381.575 12.9197 382.91 12.5496 384.06C11.5251 387.245 10.9574 389.011 9.99375 388.871C7.3356 388.512 7.83378 382.592 8.17296 379.93C7.42731 381.512 5.96136 385.065 4.55716 384.223C1.14552 382.168 7.24388 357.354 7.95082 354.531C7.99045 354.372 8.14714 354.272 8.30706 354.289L30.8092 357.233C30.9051 357.245 30.9899 357.3 31.0415 357.382C33.3277 361.012 36.1624 373.253 34.8697 378.071C34.6103 379.04 34.1867 379.684 33.6125 379.987C32.1853 380.744 30.9429 378.893 29.2257 376.334C28.5981 375.399 27.8971 374.355 27.1174 373.344C25.6998 377.203 24.944 381.129 24.386 384.03C23.9661 386.212 23.4541 390.053 21.955 389.642C19.53 388.994 19.1379 384.234 19.2038 380.593C18.8692 381.857 18.5862 383.068 18.324 384.19C17.7733 386.548 17.1166 390.374 15.4658 390.037ZM14.399 377.544C14.4262 377.544 14.4538 377.546 14.4815 377.554C14.6382 377.595 14.7405 377.746 14.7206 377.907C13.9754 384 14.3667 389.157 15.593 389.403C16.411 389.547 17.0295 386.882 17.6936 384.043C18.1378 382.141 18.642 379.986 19.3554 377.739C19.4056 377.582 19.5627 377.491 19.7263 377.519C19.8876 377.55 19.9996 377.699 19.9872 377.862C19.5918 382.873 19.9452 388.434 22.1223 389.016C22.8661 389.198 23.5537 384.925 23.7495 383.907C24.3385 380.847 25.145 376.657 26.7141 372.573C26.8008 372.349 27.1063 372.285 27.269 372.487C28.2091 373.656 29.035 374.887 29.7635 375.973C31.2341 378.164 32.3964 379.895 33.3093 379.413C33.7185 379.198 34.0324 378.69 34.2434 377.903C35.4596 373.368 32.7374 361.476 30.571 357.855L8.50845 354.969C5.89592 365.473 2.65249 382.32 4.89081 383.668C5.72264 384.168 7.95728 378.848 8.54578 377.61C8.61537 377.463 8.78312 377.39 8.93796 377.441C9.09281 377.492 9.18635 377.649 9.15685 377.809C8.69739 380.277 7.72778 387.914 10.0799 388.229C10.5154 388.304 11.2975 385.832 11.9321 383.862C12.4966 382.107 13.1989 379.923 14.099 377.744C14.1506 377.619 14.2709 377.544 14.399 377.544Z" fill="black"/>
<path d="M334.32 424.97L293.396 464.962C290.467 467.833 285.722 467.649 283.025 464.551L273.457 453.589L263.684 442.402L274.151 433.461L294.562 416.043L304.939 417.499L307.816 415.409L311.257 412.917C316.343 409.24 322.831 408.585 328.389 410.835C330.227 411.581 331.961 412.638 333.502 414.013L334.08 414.522C337.171 417.276 337.283 422.075 334.32 424.97Z" fill="#6680FF"/>
<path d="M277.573 449.109C276.561 450.993 275.129 452.504 273.453 453.589L263.68 442.402L274.147 433.461C278.92 437.055 280.486 443.686 277.573 449.109Z" fill="black"/>
<path d="M287.162 460.939C287.038 460.81 287.043 460.605 287.172 460.481L323.506 425.698C323.636 425.576 323.84 425.579 323.965 425.708C324.088 425.837 324.084 426.043 323.954 426.166L287.62 460.949C287.49 461.072 287.287 461.068 287.162 460.939Z" fill="black"/>
<path d="M327.207 414.156C324.215 419.725 317.271 421.816 311.701 418.824C310.111 417.97 308.795 416.78 307.809 415.409L311.249 412.917C316.335 409.24 322.823 408.585 328.382 410.835C328.17 411.972 327.781 413.087 327.207 414.156Z" fill="black"/>
<path d="M349.793 311.817L332.668 366.414C331.446 370.33 327.178 372.412 323.337 370.959L309.72 365.831L295.816 360.601L300.806 347.771L310.544 322.768L320.375 319.139L321.921 315.937L323.772 312.113C326.512 306.467 331.918 302.82 337.88 302.172C341.577 301.773 344.145 302.648 344.637 302.727C348.664 303.69 351.034 307.864 349.793 311.817Z" fill="#6680FF"/>
<path d="M311.229 359.934C311.229 362.072 310.683 364.081 309.72 365.831L295.816 360.601L300.806 347.771C306.712 348.678 311.229 353.778 311.229 359.934Z" fill="black"/>
<path d="M325.275 365.816C325.105 365.761 325.011 365.578 325.067 365.408L340.615 317.572C340.67 317.402 340.854 317.309 341.024 317.364C341.194 317.419 341.287 317.603 341.232 317.773L325.683 365.609C325.627 365.782 325.439 365.87 325.275 365.816Z" fill="black"/>
<path d="M338.413 305.652C338.413 311.975 333.285 317.103 326.963 317.103C325.158 317.103 323.436 316.677 321.918 315.937L323.769 312.114C326.509 306.467 331.915 302.82 337.877 302.172C338.228 303.273 338.413 304.439 338.413 305.652Z" fill="black"/>
<path d="M70.1441 323.624C70.1441 323.624 80.22 330.149 100.18 323.048C120.14 315.947 93.8468 291.189 93.8468 291.189C93.8468 291.189 67.6491 307.694 70.1441 323.624Z" fill="black"/>
<path d="M297.661 413.544L260.809 445.943C260.809 445.943 214.942 386.218 192.262 378.275C167.5 369.592 111.052 382.589 89.9092 355.003C68.7665 327.409 84.8274 307.506 84.8274 307.506C84.8274 307.506 142.72 297.564 189.513 315.365C198.132 318.633 206.37 322.854 213.804 328.242C220.45 333.064 226.874 338.193 233.003 343.46C270.927 376.026 297.661 413.544 297.661 413.544Z" fill="#E7FFF7"/>
<path d="M260.553 446.14C260.094 445.543 214.485 386.401 192.155 378.581C183.486 375.541 170.74 375.167 157.245 374.772C132.028 374.035 103.446 373.198 89.6518 355.2C68.5981 327.721 84.4124 307.504 84.5747 307.303C84.6244 307.241 84.6945 307.2 84.7724 307.187C85.3512 307.086 143.286 297.432 189.628 315.062C198.735 318.516 206.933 322.862 213.993 327.979C220.368 332.605 226.835 337.731 233.213 343.214C270.734 375.433 297.658 412.98 297.926 413.355C298.023 413.491 298.001 413.677 297.876 413.787L261.024 446.185C260.886 446.307 260.669 446.292 260.553 446.14ZM85.0065 307.805C83.8627 309.33 70.1728 328.71 90.167 354.806C103.773 372.558 132.192 373.391 157.265 374.125C170.811 374.522 183.606 374.896 192.37 377.97C214.091 385.577 257.432 441.057 260.855 445.472L297.227 413.495C294.871 410.24 268.689 374.531 232.792 343.706C226.427 338.235 219.974 333.12 213.614 328.503C206.6 323.42 198.453 319.102 189.399 315.668C144.255 298.496 88.0421 307.309 85.0065 307.805Z" fill="black"/>
<path d="M270.064 415.849C269.965 415.684 259.959 399.098 244.175 384.007C229.653 370.124 207.125 354.688 182.267 360.044C134.011 370.424 118.928 349.627 118.782 349.416C118.636 349.206 118.688 348.918 118.897 348.772C119.108 348.626 119.396 348.678 119.542 348.888C119.686 349.094 134.476 369.383 182.073 359.138C207.329 353.704 230.142 369.305 244.829 383.352C260.699 398.53 270.758 415.208 270.858 415.374C270.99 415.594 270.919 415.877 270.699 416.008C270.487 416.138 270.199 416.074 270.064 415.849Z" fill="black"/>
<path d="M233.006 343.46C215.001 345.793 196.802 346.691 178.659 346.145C157.993 345.509 157.271 342.827 151.647 342.396C149.231 342.22 147.593 340.933 147.269 338.286C147.01 336.222 147.787 334.157 148.852 332.37C152.99 325.409 161.043 321.864 168.81 319.55C175.567 317.532 182.51 316.134 189.517 315.366C198.136 318.634 206.374 322.854 213.808 328.242C220.454 333.064 226.878 338.193 233.006 343.46Z" fill="black"/>
<path d="M77.476 310.11C77.476 310.11 146.059 264.488 203.798 276.835C261.538 289.182 312.471 318.548 312.471 318.548L294.827 363.324C294.827 363.324 228.321 329.381 204.372 331.3C178.214 333.396 131.864 368.141 101.359 351.48C70.8541 334.82 77.476 310.11 77.476 310.11Z" fill="#E7FFF7"/>
<path d="M294.679 363.611C294.015 363.273 227.986 329.75 204.398 331.623C178.272 333.717 131.892 368.526 101.203 351.764C70.8259 335.173 77.0957 310.275 77.1625 310.025C77.1828 309.949 77.2302 309.883 77.2957 309.84C77.4676 309.725 94.7479 298.303 118.863 288.542C141.133 279.526 173.959 270.121 203.865 276.518C260.994 288.734 312.123 317.972 312.633 318.267C312.772 318.347 312.832 318.517 312.772 318.665L295.127 363.441C295.057 363.62 294.849 363.698 294.679 363.611ZM294.656 362.873L312.067 318.69C308.173 316.486 258.735 288.912 203.73 277.151C147.832 265.205 80.8433 308.297 77.7607 310.31C77.3326 312.169 72.6669 335.44 101.515 351.195C131.846 367.765 178.125 333.077 204.347 330.977C224.567 329.356 276.419 353.67 294.656 362.873Z" fill="black"/>
<path d="M254.393 180.993C254.307 181.087 229.45 233.307 174.867 249.374C166.832 251.744 158.159 253.336 148.809 253.864L149.124 279.033C149.124 279.033 109.597 303.259 92.1109 304.74C74.6153 306.221 70.1442 323.624 70.1442 323.624C70.1442 323.624 21.6287 230.342 78.9846 209.116C126.722 191.444 176.663 212.401 223.873 152.695L254.393 180.993Z" fill="#0E9F6E"/>
<path d="M83.4401 267.591C83.4401 267.591 53.929 278.07 41.8581 359.586L0.507812 356.216C0.71381 355.227 -2.00886 255.291 70.4434 213.244L83.4401 267.591Z" fill="#0E9F6E"/>
<path d="M49.2791 323.935C49.1068 323.886 49.0068 323.707 49.0552 323.534C54.6922 303.602 62.033 288.156 70.8734 277.624C70.9886 277.486 71.1937 277.469 71.3301 277.583C71.467 277.699 71.485 277.903 71.3697 278.039C62.7123 288.353 55.212 304.146 49.6787 323.711C49.6294 323.885 49.4487 323.982 49.2791 323.935Z" fill="black"/>
<path d="M357.917 147.214C357.475 150.196 357.178 151.989 355.549 153.138C354.455 153.91 354.708 150.032 348.808 146.693C347.052 145.7 345.189 144.908 343.441 143.902C340.631 142.285 341.182 140.25 343.428 138.748C345.801 137.159 348.801 136.599 351.604 137.083C354.68 137.615 356.656 138.93 357.591 141.985C358.105 143.668 358.174 145.48 357.917 147.214Z" fill="#E7FFF7"/>
<path d="M353.806 151.87C352.72 150.097 351.785 148.748 348.648 146.975C346.895 145.983 345.04 145.197 343.279 144.183C340.249 142.436 340.813 140.107 343.247 138.478C345.636 136.878 348.702 136.253 351.658 136.764C355.071 137.353 356.995 138.935 357.9 141.89C358.399 143.524 358.516 145.381 358.239 147.261V147.262C357.802 150.204 357.514 152.148 355.735 153.403C354.98 153.934 354.292 152.661 353.806 151.87ZM349.622 137.238C347.462 137.238 345.345 137.853 343.608 139.017C341.478 140.443 341.084 142.171 343.603 143.62C345.326 144.613 347.203 145.414 348.967 146.411C352.06 148.161 353.146 149.547 354.359 151.531C354.7 152.086 355.168 152.848 355.364 152.877C356.845 151.827 357.148 150.197 357.597 147.166C357.862 145.381 357.752 143.622 357.28 142.08C356.446 139.351 354.731 137.952 351.548 137.402C350.908 137.292 350.262 137.238 349.622 137.238Z" fill="black"/>
<path d="M406.21 132.338C393.704 145.52 367.553 151.703 354.371 139.216C349.891 134.976 347.493 129.125 346.762 122.72C345.328 110.288 350.215 95.7819 358.472 87.0807C369.146 75.8241 385.901 73.7784 398.777 81.2211C400.971 82.4801 403.053 84.0258 404.969 85.8493C418.142 98.3373 418.697 119.165 406.21 132.338Z" fill="#E7FFF7"/>
<path d="M398.777 81.2216C396.231 82.8507 393.972 84.9706 392.028 87.2384C387.668 92.3298 384.521 98.3558 380.374 103.623C373.755 112.028 364.563 118.379 354.362 121.609C351.909 122.387 349.271 122.97 346.762 122.72C345.328 110.288 350.215 95.782 358.472 87.0808C369.145 75.8246 385.9 73.7789 398.777 81.2216Z" fill="#CAD5FF"/>
<path d="M354.151 139.448C340.754 126.748 345.695 100.095 358.242 86.8625C370.848 73.5676 391.844 72.9551 405.194 85.6113C418.482 98.2113 419.044 119.274 406.444 132.564C393.683 146.022 367.507 152.111 354.151 139.448ZM358.713 87.309C346.349 100.348 341.519 126.581 354.598 138.978C367.619 151.325 393.56 145.211 405.974 132.117C418.328 119.088 417.778 98.4357 404.747 86.0818C391.7 73.7109 371.097 74.2482 358.713 87.309Z" fill="black"/>
<path d="M277.728 81.6239C278.677 84.6494 279.218 86.4822 278.202 88.3182C277.861 88.9362 276.613 87.8462 274.97 86.8969C273.133 85.836 270.983 85.4434 268.866 85.3079C266.749 85.1729 264.622 85.277 262.506 85.1263C259.105 84.8839 258.693 82.7055 260.13 80.2534C261.648 77.6611 264.231 75.7555 267.106 74.9292C270.262 74.0223 272.735 74.3605 275.021 76.8242C276.28 78.1809 277.176 79.8644 277.728 81.6239Z" fill="#E7FFF7"/>
<path d="M274.805 87.1763C273.255 86.2822 271.361 85.7914 268.843 85.631C266.735 85.496 264.599 85.5997 262.48 85.4486C258.825 85.1896 258.295 82.7356 259.848 80.0898C261.374 77.4819 263.986 75.4879 267.014 74.6182C270.553 73.5984 273.02 74.1924 275.256 76.6036C276.477 77.9197 277.438 79.6221 278.034 81.5268C278.969 84.5071 279.587 86.4762 278.483 88.474C277.918 89.4943 276.279 88.0307 274.805 87.1763ZM269.985 74.798C269.136 74.798 268.214 74.9473 267.194 75.2399C264.324 76.0644 261.851 77.952 260.408 80.417C259.03 82.7678 259.457 84.5822 262.527 84.8034C264.607 84.9513 266.768 84.849 268.885 84.984C271.506 85.1513 273.49 85.6693 275.129 86.6159C276.264 87.2717 277.646 88.28 277.913 88.1708C278.844 86.4832 278.383 84.7988 277.417 81.7199C276.849 79.9073 275.938 78.2902 274.782 77.0446C273.373 75.5266 271.859 74.798 269.985 74.798Z" fill="black"/>
<path d="M316.622 45.3991C310.836 63.6075 288.907 81.4639 270.708 75.6784C268.292 74.9102 266.061 73.7622 264.024 72.3092C250.722 62.8301 245.668 40.2431 250.685 24.4509C256.47 6.25211 275.919 -3.82889 294.128 1.95702C304.467 5.24331 312.178 12.9357 315.854 22.3038C318.658 29.4312 319.121 37.5311 316.622 45.3991Z" fill="#E7FFF7"/>
<path d="M316.621 45.3985C310.836 63.6069 288.906 81.4633 270.707 75.6778C268.291 74.9096 266.06 73.7616 264.023 72.3086C267.485 70.2256 271.54 69.2444 275.53 68.4573C280.205 67.5412 285.379 66.5688 288.295 62.8106C291.007 59.3022 290.905 54.4236 290.378 50.0267C289.85 45.6206 289.054 40.9918 290.739 36.882C292.627 32.263 297.265 29.3652 301.921 27.5697C306.559 25.783 311.52 24.7466 315.852 22.3027C318.658 29.4306 319.12 37.5304 316.621 45.3985Z" fill="#CAD5FF"/>
<path d="M278.052 77.1187C275.489 77.1187 272.994 76.7435 270.604 75.985C252.173 70.1281 244.467 42.9502 250.376 24.3523C256.22 5.96139 275.833 -4.19103 294.226 1.65111C312.573 7.48172 322.756 27.1529 316.926 45.501C311.864 61.4319 294.509 77.1187 278.052 77.1187ZM250.994 24.5501C248.149 33.5015 248.526 44.7406 252.002 54.6151C259.75 76.6283 278.813 82.9691 298.13 69.2732C306.669 63.2154 313.464 54.2552 316.308 45.3047C322.031 27.2971 312.036 7.99142 294.029 2.27002C275.994 -3.46474 256.734 6.48584 250.994 24.5501Z" fill="black"/>
<path d="M241.414 164.8C241.297 164.663 241.313 164.459 241.449 164.343C245.898 160.538 249.98 156.704 251.044 151.636C252.352 145.413 248.677 139.403 245.364 135.456C241.498 130.857 236.726 126.905 233.647 121.697C227.776 111.774 229.114 98.0446 236.897 88.3102C243.934 79.5108 255.657 74.2161 268.256 74.1475C268.257 74.1475 268.257 74.1475 268.258 74.1475C268.436 74.1475 268.58 74.2912 268.581 74.4691C268.582 74.6479 268.438 74.7936 268.259 74.7945C255.854 74.8622 244.319 80.0666 237.403 88.7152C229.785 98.2432 228.469 111.67 234.204 121.368C237.235 126.489 242.007 130.454 245.86 135.039C249.266 139.096 253.041 145.29 251.68 151.769C250.481 157.472 245.504 161.728 241.87 164.835C241.732 164.953 241.526 164.933 241.414 164.8Z" fill="black"/>
<path d="M261.946 180.069C257.777 174.755 254.614 168.8 252.545 162.369C250.467 155.907 250.531 150.671 252.738 146.806C254.921 142.983 259.505 140.328 264.7 139.878C269.771 139.44 274.785 140.942 278.584 142.303C286.907 145.282 295.804 150.115 309.144 147.036C317.657 145.069 319.534 140.752 318 133.164C316.461 125.562 313.56 118.399 309.374 111.872C309.277 111.721 309.321 111.521 309.472 111.424C309.619 111.328 309.822 111.371 309.92 111.523C314.148 118.117 317.081 125.356 318.635 133.036C320.22 140.875 318.249 145.597 309.291 147.667C295.991 150.738 287.212 146.083 278.365 142.912C274.628 141.575 269.707 140.097 264.757 140.523C259.769 140.956 255.379 143.487 253.301 147.128C251.189 150.827 251.142 155.888 253.162 162.169C255.209 168.528 258.336 174.416 262.456 179.669C262.566 179.81 262.542 180.013 262.401 180.123C262.262 180.233 262.058 180.211 261.946 180.069Z" fill="black"/>
<path d="M240.9 157.497C240.78 157.364 240.791 157.159 240.923 157.04C244.739 153.59 242.276 150.238 242.169 150.097C242.061 149.954 242.089 149.752 242.232 149.643C242.373 149.537 242.577 149.563 242.686 149.706C242.716 149.745 245.61 153.677 241.357 157.52C241.229 157.637 241.022 157.632 240.9 157.497Z" fill="black"/>
<path d="M174.871 249.373C166.837 251.743 158.163 253.335 148.813 253.863C148.813 253.863 145.139 233.137 136.289 220.788C136.289 220.788 159.32 230.878 174.871 249.373Z" fill="black"/>
<path d="M315.973 123.466C315.852 127.949 315.732 130.648 313.53 132.637C312.789 133.307 311.622 131.276 309.86 129.251C307.89 126.988 305.196 125.474 302.426 124.321C299.657 123.167 296.764 122.329 294.003 121.155C289.564 119.268 290.015 116.165 293.064 113.545C296.286 110.775 300.616 109.414 304.842 109.63C309.48 109.867 312.633 111.456 314.558 115.802C315.618 118.195 316.043 120.859 315.973 123.466Z" fill="#E7FFF7"/>
<path d="M309.616 129.464C307.942 127.541 305.618 126.002 302.302 124.62C299.551 123.473 296.649 122.632 293.877 121.454C289.189 119.46 289.646 116.057 292.853 113.299C296.068 110.536 300.455 109.08 304.859 109.307C310.006 109.57 312.995 111.473 314.855 115.672C315.874 117.972 316.372 120.671 316.297 123.475C316.178 127.858 316.1 130.754 313.748 132.878C312.666 133.859 311.19 131.274 309.616 129.464ZM303.962 109.932C300.01 109.932 296.156 111.315 293.275 113.791C290.346 116.309 289.967 119.088 294.13 120.857C296.865 122.02 299.779 122.867 302.551 124.022C305.962 125.444 308.362 127.038 310.104 129.039C311.533 130.68 312.909 132.774 313.314 132.397C315.364 130.545 315.524 128.058 315.649 123.457C315.722 120.748 315.242 118.147 314.262 115.934C312.516 111.991 309.694 110.203 304.826 109.954C304.537 109.939 304.25 109.932 303.962 109.932Z" fill="black"/>
<path d="M384.641 92.895C384.363 93.265 384.076 93.6356 383.789 94.0056C367.247 115.046 330.636 128.108 309.308 112.279C305.392 109.372 302.264 105.688 299.857 101.476C288.915 82.3605 292.877 52.3498 306.077 34.5672C322.184 12.8779 352.824 8.3423 374.522 24.4493C396.212 40.5476 400.748 71.197 384.641 92.895Z" fill="#E7FFF7"/>
<path d="M383.788 94.0055C367.246 115.046 330.635 128.108 309.307 112.278C305.391 109.372 302.262 105.687 299.855 101.476C301.762 102.975 303.179 105.077 304.947 106.77C307.02 108.77 310.149 110.27 312.723 108.983C315.518 107.594 316.018 103.929 317.305 101.078C319.693 95.801 325.488 92.8387 331.181 91.7561C342.076 89.692 353.148 93.0612 364.107 94.6627C370.56 95.607 377.577 95.7272 383.788 94.0055Z" fill="#CAD5FF"/>
<path d="M332.321 119.65C307.229 119.65 293.387 101.104 293.195 75.5212C293.083 60.5529 297.803 45.1695 305.819 34.3714C322.011 12.5633 352.815 7.92625 374.716 24.1872C396.566 40.4108 401.123 71.2303 384.9 93.084C376.884 103.88 363.524 112.848 349.16 117.071C343.298 118.796 337.64 119.65 332.321 119.65ZM306.34 34.7585C298.404 45.4473 293.733 60.6843 293.844 75.5166C294.091 108.667 316.826 125.91 348.978 116.45C363.211 112.265 376.445 103.385 384.38 92.6969C400.354 71.1819 395.845 40.6813 374.329 24.7079C352.772 8.70278 322.351 13.1914 306.34 34.7585Z" fill="black"/>
<path d="M262.398 175.103C262.332 174.937 262.412 174.749 262.579 174.682C268.124 172.468 274.154 171.677 279.987 170.911C288.508 169.794 297.584 168.528 304.415 163.08C308.671 159.684 311.673 154.886 314.577 150.245C317.864 144.992 321.263 139.559 326.499 136.138C334.281 131.055 345.734 131.341 352.57 136.789C352.71 136.9 352.733 137.105 352.621 137.244C352.511 137.385 352.305 137.407 352.167 137.296C345.534 132.012 334.414 131.742 326.854 136.681C321.737 140.024 318.376 145.395 315.126 150.589C312.194 155.275 309.161 160.121 304.818 163.586C297.861 169.135 288.656 170.425 280.07 171.554C274.277 172.314 268.288 173.1 262.818 175.284C262.648 175.351 262.463 175.267 262.398 175.103Z" fill="black"/>
<path d="M280.388 356.669C280.22 356.606 280.135 356.419 280.199 356.252L297.365 310.632C297.428 310.465 297.618 310.379 297.781 310.443C297.949 310.505 298.033 310.693 297.97 310.86L280.804 356.48C280.739 356.654 280.545 356.73 280.388 356.669Z" fill="black"/>
<path d="M250.709 433.205C250.59 433.072 250.602 432.866 250.736 432.747L287.185 400.277C287.317 400.159 287.523 400.169 287.642 400.304C287.76 400.437 287.749 400.642 287.614 400.762L251.166 433.232C251.033 433.349 250.828 433.339 250.709 433.205Z" fill="black"/>
<path d="M288.839 333.948C227.219 295.442 195.632 307.54 165.084 319.236C157.949 321.968 150.571 324.793 143.053 326.808C128.859 330.61 117.994 329.874 110.762 324.618C102.912 318.911 102.364 310.036 102.344 309.662C102.331 309.406 102.527 309.189 102.782 309.176C103.042 309.158 103.255 309.359 103.269 309.613C103.273 309.7 103.824 318.438 111.318 323.877C118.313 328.952 128.909 329.638 142.813 325.913C150.286 323.911 157.313 321.22 164.753 318.371C195.513 306.592 227.32 294.414 289.329 333.163C289.546 333.298 289.612 333.584 289.477 333.8C289.341 334.019 289.053 334.082 288.839 333.948Z" fill="black"/>
<path d="M214.122 164.295L213.441 164.923L240.942 194.681L241.622 194.052L214.122 164.295Z" fill="black"/>
<path d="M243.349 186.553C241.642 186.553 240.254 185.164 240.254 183.458C240.254 181.752 241.642 180.363 243.349 180.363C245.055 180.363 246.444 181.751 246.444 183.458C246.444 185.164 245.055 186.553 243.349 186.553ZM243.349 181.289C242.153 181.289 241.179 182.263 241.179 183.459C241.179 184.655 242.153 185.627 243.349 185.627C244.545 185.627 245.518 184.655 245.518 183.459C245.518 182.263 244.545 181.289 243.349 181.289Z" fill="black"/>
<path d="M41.9275 340.671L3.7832 343.282L3.84644 344.206L41.9907 341.595L41.9275 340.671Z" fill="black"/>
<path d="M35.9696 353.487C34.2631 353.487 32.875 352.099 32.875 350.393C32.875 348.687 34.2631 347.299 35.9696 347.299C37.6756 347.299 39.0646 348.687 39.0646 350.393C39.0646 352.099 37.6761 353.487 35.9696 353.487ZM35.9696 348.224C34.7737 348.224 33.8008 349.197 33.8008 350.393C33.8008 351.589 34.7737 352.562 35.9696 352.562C37.1655 352.562 38.1388 351.589 38.1388 350.393C38.1388 349.197 37.1655 348.224 35.9696 348.224Z" fill="black"/>
<path d="M280.464 24.7168C280.464 25.915 275.794 35.0655 273.597 39.5394L281.83 39.2809C281.83 37.5209 281.707 34.3954 281.461 29.9036C281.461 28.0892 284.201 27.3708 284.857 29.516C285.128 33.7867 285.263 36.9918 285.263 39.1325H285.412L286.704 39.0223C288.638 39.0223 289.541 42.5109 285.873 42.5109L285.374 42.5662C285.375 42.6612 285.414 48.5079 285.411 48.1411C285.226 49.3227 284.642 49.913 283.657 49.913C282.919 49.913 282.377 49.507 282.033 48.6955C281.886 47.8738 281.961 46.4475 281.941 42.7146L271.012 43.1386C268.77 42.6012 268.711 40.8657 269.832 38.8933L277.381 23.7015C278.474 22.5116 280.11 22.725 280.464 24.7168Z" fill="#0E9F6E"/>
<path d="M395.3 111.452L395.029 111.725C388.816 113.493 387.7 113.637 380.095 115.015L379.985 115.099L384.869 121.095C386.182 120.093 388.445 118.219 391.657 115.476C393.022 114.433 395.115 116.073 393.882 117.79C390.849 120.426 388.533 122.353 386.935 123.573L387.019 123.683L387.838 124.585C388.94 126.023 386.855 128.694 384.762 125.952L384.437 125.612C384.344 125.684 380.022 129.029 380.297 128.816C378.371 129.86 377.093 128.128 377.959 126.611C378.483 126.037 379.572 125.294 382.37 123.134L375.827 115.221C374.951 113.246 376.206 112.208 378.321 111.92L393.961 108.898C395.263 109.017 396.118 110.098 395.3 111.452Z" fill="#0E9F6E"/>
<path d="M348.741 49.5218C348.813 49.6144 360.527 55.081 352.21 70.0797C342.904 86.8636 331.661 78.6546 331.458 78.6187C325.962 75.5729 323.148 68.6653 329.066 57.9931C334.475 48.2383 342.824 46.242 348.741 49.5218ZM332.841 60.1392C328.31 68.3105 330.311 73.0157 334.092 75.1167C334.487 75.0688 341.009 81.3257 348.413 67.9736C354.791 56.4695 346.802 53.5141 346.737 53.3768C341.304 50.3624 335.845 54.7247 332.841 60.1392Z" fill="#0E9F6E"/>
<path d="M92.481 171.634C92.481 171.634 96.2765 174.902 94.8801 177.988C93.4842 181.075 84.8125 173.77 84.8125 173.77L92.481 171.634Z" fill="black"/>
<path d="M80.4385 208.369L74.7835 195.745C74.1365 195.003 73.5549 194.186 73.0563 193.305C68.3884 184.959 72.5894 174.913 81.1994 172.067C88.1858 169.753 93.2473 173.78 96.0299 180.31C96.3077 180.951 97.0446 181.268 97.7101 181.049C98.8544 180.669 100.154 181.323 100.447 182.612C100.682 183.699 99.9687 184.769 98.918 185.121C98.1511 185.379 97.752 186.102 97.8456 186.816C98.5617 192.342 96.8658 197.177 91.6329 199.481L99.2489 214.401" fill="#E7FFF7"/>
<path d="M98.9614 214.55L91.3455 199.629C91.2612 199.464 91.3321 199.261 91.5031 199.185C96.1517 197.14 98.29 192.762 97.525 186.859C97.4148 186.018 97.8817 185.129 98.8144 184.816C99.7444 184.503 100.322 183.566 100.131 182.682C99.8827 181.598 98.7877 181.029 97.813 181.357C96.9862 181.633 96.0742 181.226 95.7332 180.441C92.6856 173.287 87.4255 170.351 81.3014 172.375C77.2192 173.725 73.9836 176.799 72.4241 180.812C70.8641 184.824 71.1983 189.32 73.3398 193.148C73.8182 193.995 74.3869 194.797 75.0279 195.534C75.0491 195.558 75.0661 195.585 75.0795 195.614L80.735 208.238C80.8083 208.402 80.735 208.594 80.5719 208.667C80.4083 208.737 80.2161 208.667 80.1437 208.504L74.5081 195.923C73.8509 195.164 73.2679 194.337 72.7753 193.466C70.5383 189.467 70.1904 184.77 71.8204 180.577C73.4504 176.385 76.8316 173.172 81.0982 171.762C87.585 169.612 93.1331 172.687 96.3286 180.185C96.5365 180.664 97.0959 180.906 97.6098 180.744C98.9476 180.294 100.43 181.08 100.763 182.542C101.025 183.748 100.26 185.015 99.0218 185.431C98.3974 185.643 98.0946 186.214 98.1679 186.776C98.9554 192.859 96.7941 197.411 92.0764 199.638L99.5384 214.257C99.62 214.416 99.5564 214.611 99.3974 214.693C99.2444 214.77 99.0444 214.712 98.9614 214.55Z" fill="black"/>
<path d="M92.7736 175.052C92.7736 175.052 89.1242 182.401 79.2404 181.969C79.2404 181.969 83.9171 187.03 76.191 190.27L71.9462 194.447C71.9462 194.447 55.5189 176.93 70.5793 175.732C70.5793 175.732 69.9396 168.64 77.6007 164.535C89.6689 158.07 97.2798 167.689 92.7736 175.052Z" fill="black"/>
<path d="M79.193 189.102C80.723 191.061 80.3746 193.897 78.4151 195.427C76.4492 196.963 73.6205 196.608 72.0905 194.65C70.5605 192.691 70.902 189.86 72.8679 188.325C74.827 186.795 77.6626 187.143 79.193 189.102Z" fill="#E7FFF7"/>
<path d="M71.8324 194.849C70.189 192.745 70.5586 189.715 72.6661 188.069C74.7634 186.429 77.8059 186.804 79.4456 188.902C81.0848 191.002 80.7106 194.043 78.6114 195.681C76.4998 197.332 73.4721 196.948 71.8324 194.849ZM73.0647 188.579C71.2172 190.024 70.9393 192.653 72.3435 194.45C73.0306 195.33 74.0191 195.891 75.1265 196.027C76.2358 196.165 77.3312 195.861 78.2133 195.172C80.0304 193.752 80.3544 191.119 78.935 189.302C77.5188 187.488 74.8864 187.159 73.0647 188.579Z" fill="black"/>
<path d="M91.6309 199.482C89.5382 201.088 86.8893 200.917 84.0371 200.096C86.8741 203.428 90.182 204.527 93.4162 202.979L91.6309 199.482Z" fill="black"/>
<path d="M83.7914 200.306C83.5789 200.057 83.8338 199.689 84.1278 199.785C87.4367 200.737 89.6897 200.564 91.4349 199.225C91.5985 199.096 91.8322 199.16 91.9202 199.335L93.7051 202.832C93.7885 202.995 93.7198 203.195 93.5562 203.272C89.8787 205.033 86.4251 203.399 83.7914 200.306ZM85.0204 200.687C87.5192 203.201 90.3036 203.957 92.9742 202.824L91.5147 199.964C89.4621 201.341 86.9989 201.143 85.0204 200.687Z" fill="black"/>
<path d="M92.4413 181.386C92.8178 181.868 92.7321 182.565 92.25 182.941C91.7685 183.317 91.0721 183.232 90.6956 182.75C90.3191 182.268 90.4048 181.571 90.8869 181.195C91.3689 180.819 92.0652 180.904 92.4413 181.386Z" fill="black"/>
<path d="M90.702 179.048C90.702 179.048 87.7609 179.545 88.4153 182.502L90.702 179.048Z" fill="#E7FFF7"/>
<path d="M88.1004 182.572C87.6304 180.448 88.941 178.992 90.6498 178.729C90.824 178.7 90.9922 178.818 91.0226 178.994C91.0526 179.169 90.9342 179.336 90.7581 179.367C89.347 179.584 88.3557 180.727 88.7332 182.433C88.7714 182.608 88.6613 182.78 88.4871 182.819C88.3212 182.857 88.1405 182.754 88.1004 182.572Z" fill="black"/>
<path d="M93.0613 191.82C92.895 191.755 92.8125 191.567 92.8779 191.4C92.9429 191.235 93.1305 191.154 93.2968 191.216C93.4033 191.257 95.9025 192.198 97.6763 190.44C97.8035 190.315 98.009 190.315 98.1343 190.443C98.2601 190.57 98.2597 190.775 98.132 190.902C96.7753 192.244 94.6646 192.443 93.0613 191.82Z" fill="black"/>
<path d="M128.371 297.994C128.371 297.994 142.826 292.629 154.897 303.657L128.371 297.994Z" fill="black"/>
<path d="M154.897 303.98C154.819 303.98 154.74 303.952 154.678 303.896C142.9 293.136 128.626 298.244 128.483 298.298C128.316 298.36 128.129 298.274 128.067 298.107C128.005 297.939 128.091 297.753 128.258 297.69C128.405 297.637 143.039 292.385 155.115 303.417C155.247 303.538 155.257 303.743 155.136 303.876C155.072 303.945 154.985 303.98 154.897 303.98Z" fill="black"/>
<path d="M9.28711 295.203C9.78528 293.834 14.2467 277.581 24.1756 260.178L24.4738 259.654L24.9024 260.078C28.8472 263.973 31.0201 269.169 31.0201 274.708C31.0201 286.781 20.6096 296.084 9.28711 295.203ZM24.6775 261.17C19.016 271.188 14.2555 282.346 10.519 294.352C21.3189 294.316 30.0947 285.517 30.0947 274.709C30.0947 269.621 28.1753 264.836 24.6775 261.17Z" fill="black"/>
<path d="M189.005 244.681C188.901 244.274 187.865 242.02 187.865 238.154C187.865 227.582 196.466 218.983 207.036 218.983C211.926 218.983 216.575 220.819 220.128 224.153L220.503 224.504C219.716 225.094 207.489 236.419 189.47 244.473L189.005 244.681ZM207.036 219.909C196.976 219.909 188.791 228.093 188.791 238.154C188.791 239.954 189.051 241.721 189.565 243.416C199.976 238.706 209.911 232.339 219.113 224.479C215.785 221.528 211.517 219.909 207.036 219.909Z" fill="black"/>
<path d="M126.957 255.413C126.957 266.077 118.321 274.714 107.666 274.714C97.0019 274.714 88.3652 266.077 88.3652 255.413C88.3652 244.759 97.0019 236.113 107.666 236.113C118.321 236.113 126.957 244.759 126.957 255.413Z" fill="white"/>
<path d="M374.03 246.159C373.885 246.054 373.854 245.85 373.96 245.706C375.937 243.016 375.355 239.25 372.675 237.279C369.999 235.312 366.22 235.891 364.251 238.567C364.146 238.713 363.943 238.744 363.798 238.637C363.654 238.532 363.623 238.328 363.729 238.184C365.909 235.219 370.095 234.579 373.058 236.757C376.031 238.943 376.669 243.115 374.483 246.09C374.376 246.235 374.171 246.263 374.03 246.159Z" fill="black"/>
<path d="M166.956 138.237C164.58 135.426 164.932 131.208 167.741 128.832C170.552 126.458 174.771 126.81 177.148 129.62C177.264 129.757 177.247 129.961 177.11 130.077C176.975 130.193 176.77 130.176 176.654 130.038C174.508 127.502 170.696 127.182 168.159 129.328C165.624 131.472 165.305 135.281 167.451 137.82C167.566 137.956 167.549 138.16 167.413 138.276C167.277 138.39 167.071 138.374 166.956 138.237Z" fill="black"/>
<path d="M6.88031 229.498C4.50373 226.688 4.85582 222.469 7.66513 220.093C10.4638 217.729 14.676 218.046 17.0724 220.882C17.188 221.018 17.171 221.222 17.0346 221.339C16.8982 221.455 16.6945 221.437 16.5779 221.299C14.3815 218.704 10.5684 218.486 8.08357 220.589C5.54754 222.733 5.2291 226.542 7.37479 229.081C7.49047 229.217 7.47342 229.422 7.33701 229.538C7.20152 229.652 6.99552 229.636 6.88031 229.498Z" fill="black"/>
<path d="M88.9723 69.5939L75.334 87.3154L93.0556 100.954L106.694 83.2322L88.9723 69.5939Z" fill="#76C4FF"/>
<path d="M87.2855 62.0215L64.9258 62.1333L65.0376 84.4926L87.3973 84.3808L87.2855 62.0215Z" fill="#0E9F6E"/>
</svg>
