<svg width="35" height="36" viewBox="0 0 35 36" fill="none" xmlns="http://www.w3.org/2000/svg">
<path d="M16.854 0.734136C17.2959 0.55649 17.7894 0.55649 18.2314 0.734136L22.5842 2.48379L27.1341 3.62681C27.5961 3.74286 27.9953 4.03294 28.2485 4.43643L30.7415 8.41045L33.7507 12.0096C34.0562 12.375 34.2087 12.8443 34.1763 13.3195L33.8574 18L34.1763 22.6804C34.2087 23.1557 34.0562 23.625 33.7507 23.9904L30.7415 27.5895L28.2485 31.5635C27.9953 31.967 27.5961 32.2571 27.1341 32.3732L22.5842 33.5162L18.2314 35.2658C17.7894 35.4435 17.2959 35.4435 16.854 35.2658L12.5012 33.5162L7.95124 32.3732C7.48928 32.2571 7.09003 31.967 6.8369 31.5635L4.34382 27.5895L1.3347 23.9904C1.02918 23.625 0.87668 23.1557 0.909061 22.6804L1.22799 18L0.909061 13.3195C0.87668 12.8443 1.02918 12.375 1.3347 12.0096L4.34382 8.41045L6.8369 4.43643C7.09003 4.03294 7.48928 3.74286 7.95124 3.62681L12.5012 2.48379L16.854 0.734136Z" fill="#EFAA29"/>
</svg>
